<?xml version="1.0" encoding="UTF-8" standalone="no"?><!DOCTYPE svg PUBLIC "-//W3C//DTD SVG 1.1//EN" "http://www.w3.org/Graphics/SVG/1.1/DTD/svg11.dtd"><svg width="100%" height="100%" viewBox="0 0 100 100" version="1.1" xmlns="http://www.w3.org/2000/svg" xmlns:xlink="http://www.w3.org/1999/xlink" xml:space="preserve" xmlns:serif="http://www.serif.com/" style="fill-rule:evenodd;clip-rule:evenodd;stroke-linejoin:round;stroke-miterlimit:2;"><path d="M50.633,28.733c-3.95,0 -10.062,-4.491 -16.5,-4.333c-8.5,0.113 -16.291,4.929 -20.671,12.558c-8.82,15.313 -2.275,37.93 6.33,50.375c4.221,6.059 9.2,12.875 15.8,12.663c6.333,-0.271 8.708,-4.113 16.396,-4.113c7.629,0 9.791,4.113 16.5,3.95c6.82,-0.108 11.15,-6.166 15.316,-12.283c4.817,-7.033 6.817,-13.854 6.925,-14.229c-0.162,-0.054 -13.258,-5.088 -13.416,-20.238c-0.109,-12.666 10.333,-18.725 10.82,-18.995c-5.954,-8.709 -15.096,-9.684 -18.291,-9.9c-8.334,-0.65 -15.313,4.541 -19.209,4.541l0,0.004Zm14.075,-12.775c3.513,-4.216 5.834,-10.112 5.188,-15.958c-5.029,0.217 -11.092,3.354 -14.717,7.575c-3.25,3.733 -6.058,9.742 -5.304,15.475c5.575,0.433 11.312,-2.867 14.829,-7.087" style="fill:#fff;fill-rule:nonzero;"/></svg>