<?xml version="1.0" encoding="UTF-8" standalone="no"?><!DOCTYPE svg PUBLIC "-//W3C//DTD SVG 1.1//EN" "http://www.w3.org/Graphics/SVG/1.1/DTD/svg11.dtd"><svg width="100%" height="100%" viewBox="0 0 417 417" version="1.1" xmlns="http://www.w3.org/2000/svg" xmlns:xlink="http://www.w3.org/1999/xlink" xml:space="preserve" xmlns:serif="http://www.serif.com/" style="fill-rule:evenodd;clip-rule:evenodd;stroke-linejoin:round;stroke-miterlimit:2;"><path d="M210.859,124.672c-15.759,0 -40.144,-17.917 -65.829,-17.287c-33.912,0.451 -64.996,19.665 -82.47,50.102c-35.189,61.094 -9.077,151.328 25.254,200.98c16.841,24.173 36.705,51.366 63.037,50.521c25.266,-1.082 34.742,-16.41 65.414,-16.41c30.438,0 39.063,16.41 65.83,15.759c27.209,-0.431 44.485,-24.6 61.105,-49.005c19.219,-28.059 27.198,-55.272 27.629,-56.769c-0.646,-0.215 -52.895,-20.299 -53.525,-80.742c-0.435,-50.533 41.225,-74.707 43.168,-75.784c-23.755,-34.746 -60.228,-38.636 -72.975,-39.498c-33.25,-2.593 -61.094,18.117 -76.638,18.117l0,0.016Zm56.155,-50.967c14.016,-16.821 23.276,-40.344 20.698,-63.667c-20.064,0.865 -44.253,13.381 -58.716,30.221c-12.966,14.894 -24.169,38.867 -21.161,61.74c22.243,1.728 45.131,-11.438 59.163,-28.275" style="fill:#fff;fill-rule:nonzero;"/><path d="M210.859,119.464l0,-0.016c5.742,0 13.245,-3.245 22.213,-6.764c15.194,-5.961 33.997,-12.954 54.801,-11.339c13.468,0.912 51.858,5.125 76.898,41.753c0.828,1.21 1.107,2.712 0.769,4.139c-0.338,1.426 -1.261,2.644 -2.543,3.355c-1.824,1.012 -40.891,23.734 -40.485,71.179c0.593,56.671 49.358,75.649 49.964,75.851c2.649,0.883 4.131,3.699 3.358,6.383c-0.442,1.535 -8.611,29.468 -28.331,58.262c-8.534,12.53 -17.27,24.973 -27.33,34.365c-10.759,10.044 -23.03,16.667 -37.966,16.912c-14.295,0.345 -23.773,-3.765 -33.716,-8.061c-8.75,-3.781 -17.918,-7.697 -32.226,-7.697c-14.443,0 -23.886,3.651 -32.702,7.387c-9.905,4.198 -19.122,8.446 -32.489,9.018c-0.019,0.001 -0.037,0.002 -0.056,0.002c-11.738,0.377 -22.369,-4.118 -32.047,-11.526c-13.42,-10.272 -25.019,-26.279 -35.43,-41.223l-0.011,-0.015c-35.27,-51.011 -61.635,-143.771 -25.485,-206.538c18.404,-32.054 51.176,-52.229 86.889,-52.713c13.532,-0.325 26.744,4.126 38.626,8.762c10.57,4.125 19.914,8.524 27.299,8.524Zm0.021,10.401c-0.013,0.01 -0.021,0.016 -0.021,0.016c-6.826,-0 -15.19,-2.95 -24.498,-6.632c-12.295,-4.863 -26.507,-11.018 -41.203,-10.657c-0.02,0 -0.039,0.001 -0.059,0.001c-32.099,0.427 -61.482,18.678 -78.022,47.488l-0.004,0.006c-34.224,59.418 -8.368,147.118 25.021,195.411c8.213,11.789 17.134,24.337 27.241,33.811c9.286,8.706 19.528,14.844 31.324,14.474c11.882,-0.515 20.03,-4.468 28.84,-8.201c9.906,-4.198 20.537,-8.212 36.766,-8.212c16.13,-0 26.494,4.289 36.357,8.55c8.667,3.745 16.883,7.513 29.346,7.21c0.015,0 0.03,-0 0.044,-0c12.261,-0.195 22.223,-5.869 31.052,-14.112c9.534,-8.9 17.745,-20.744 25.832,-32.618l0.007,-0.011c14.633,-21.364 22.586,-42.22 25.559,-50.995c-13.585,-6.727 -51.813,-30.404 -52.366,-83.519l-0.001,-0.01c-0.376,-43.697 28.946,-68.8 40.925,-77.212c-22.411,-28.841 -54.377,-32.14 -65.875,-32.917c-0.017,-0.001 -0.035,-0.003 -0.053,-0.004c-19.084,-1.488 -36.279,5.181 -50.215,10.649c-10.446,4.098 -19.305,7.477 -25.997,7.484Zm-0.035,-0.002c-0.296,-0.366 -5.194,-6.398 -5.194,-5.206c0,4.591 4.898,5.175 5.194,5.206Zm60.17,-52.824l-8.002,-6.669c12.141,-14.57 20.554,-34.474 19.887,-54.665c-17.675,2.455 -37.588,13.55 -49.952,27.948l-0.023,0.026c-11.291,12.969 -21.283,33.261 -20.317,53.261c19.194,-0.299 38.297,-12.041 50.389,-26.55l8.002,6.669c-15.054,18.062 -39.705,31.986 -63.567,30.133c-2.454,-0.191 -4.44,-2.073 -4.761,-4.514c-3.204,-24.366 8.575,-49.956 22.387,-65.827c15.371,-17.889 41.113,-31.097 62.43,-32.017c2.738,-0.118 5.1,1.907 5.401,4.631c2.734,24.745 -7.004,49.729 -21.874,67.574Z"/></svg>