<?xml version="1.0" encoding="UTF-8" standalone="no"?><!DOCTYPE svg PUBLIC "-//W3C//DTD SVG 1.1//EN" "http://www.w3.org/Graphics/SVG/1.1/DTD/svg11.dtd"><svg width="100%" height="100%" viewBox="0 0 417 417" version="1.1" xmlns="http://www.w3.org/2000/svg" xmlns:xlink="http://www.w3.org/1999/xlink" xml:space="preserve" xmlns:serif="http://www.serif.com/" style="fill-rule:evenodd;clip-rule:evenodd;stroke-linejoin:round;stroke-miterlimit:2;"><path d="M344.858,74.399c-25.507,-11.709 -52.426,-20.062 -80.081,-24.842c-0.515,-0.094 -1.035,0.15 -1.291,0.61c-3.458,6.149 -7.286,14.176 -9.969,20.483c-30.24,-4.529 -60.327,-4.529 -89.949,-0c-2.68,-6.449 -6.653,-14.334 -10.124,-20.483c-0.263,-0.449 -0.779,-0.689 -1.29,-0.606c-27.659,4.769 -54.579,13.117 -80.085,24.834c-0.217,0.095 -0.402,0.252 -0.524,0.453c-51.006,76.206 -64.981,150.535 -58.127,223.944c0.039,0.362 0.224,0.692 0.511,0.92c33.656,24.712 66.252,39.718 98.247,49.661c0.508,0.153 1.058,-0.028 1.381,-0.453c7.566,-10.336 14.314,-21.234 20.097,-32.691c0.087,-0.173 0.134,-0.366 0.134,-0.563c-0,-0.523 -0.327,-0.991 -0.814,-1.168c-10.702,-4.061 -20.892,-9.01 -30.693,-14.628c-0.386,-0.229 -0.626,-0.642 -0.626,-1.09c0,-0.394 0.185,-0.767 0.5,-1.004c2.062,-1.546 4.127,-3.155 6.095,-4.78c0.358,-0.291 0.849,-0.358 1.274,-0.169c64.387,29.398 134.098,29.398 197.725,-0c0.425,-0.201 0.925,-0.142 1.291,0.153c1.967,1.625 4.029,3.25 6.11,4.796c0.315,0.237 0.503,0.61 0.503,1.008c0,0.444 -0.232,0.853 -0.613,1.082c-9.805,5.728 -20.074,10.615 -30.705,14.612c-0.484,0.185 -0.806,0.653 -0.806,1.173c-0,0.2 0.047,0.401 0.141,0.578c5.906,11.441 12.654,22.34 20.082,32.675c0.311,0.437 0.869,0.626 1.381,0.469c32.144,-9.947 64.745,-24.949 98.396,-49.661c0.295,-0.216 0.48,-0.547 0.515,-0.905c8.204,-84.869 -13.743,-158.589 -58.174,-223.944c-0.11,-0.212 -0.291,-0.377 -0.512,-0.468l0,0.004Zm-201.588,179.697c-19.385,0 -35.359,-17.799 -35.359,-39.655c0,-21.855 15.663,-39.655 35.359,-39.655c19.849,0 35.669,17.953 35.359,39.655c-0,21.856 -15.663,39.655 -35.359,39.655Zm130.733,0c-19.385,0 -35.359,-17.799 -35.359,-39.655c0,-21.855 15.663,-39.655 35.359,-39.655c19.849,0 35.666,17.953 35.359,39.655c-0,21.856 -15.51,39.655 -35.359,39.655Z" style="fill:#fff;fill-rule:nonzero;stroke:#000;stroke-width:20.83px;"/></svg>