<?xml version="1.0" encoding="UTF-8" standalone="no"?><!DOCTYPE svg PUBLIC "-//W3C//DTD SVG 1.1//EN" "http://www.w3.org/Graphics/SVG/1.1/DTD/svg11.dtd"><svg width="100%" height="100%" viewBox="0 0 100 100" version="1.1" xmlns="http://www.w3.org/2000/svg" xmlns:xlink="http://www.w3.org/1999/xlink" xml:space="preserve" xmlns:serif="http://www.serif.com/" style="fill-rule:evenodd;clip-rule:evenodd;stroke-linejoin:round;stroke-miterlimit:2;"><path d="M84.654,18.208c-6.483,-2.976 -13.325,-5.099 -20.354,-6.314c-0.131,-0.024 -0.263,0.038 -0.328,0.155c-0.879,1.563 -1.852,3.603 -2.534,5.206c-7.686,-1.151 -15.333,-1.151 -22.862,-0c-0.681,-1.639 -1.691,-3.643 -2.573,-5.206c-0.067,-0.114 -0.198,-0.175 -0.328,-0.154c-7.03,1.212 -13.872,3.334 -20.355,6.312c-0.055,0.024 -0.102,0.064 -0.133,0.115c-12.964,19.369 -16.516,38.261 -14.774,56.919c0.01,0.092 0.057,0.176 0.13,0.234c8.554,6.281 16.839,10.095 24.971,12.622c0.129,0.039 0.269,-0.007 0.351,-0.115c1.923,-2.627 3.638,-5.397 5.108,-8.309c0.022,-0.044 0.034,-0.093 0.034,-0.143c0,-0.133 -0.083,-0.252 -0.207,-0.297c-2.72,-1.032 -5.31,-2.29 -7.801,-3.718c-0.098,-0.058 -0.159,-0.163 -0.159,-0.277c0,-0.1 0.047,-0.195 0.127,-0.255c0.524,-0.393 1.049,-0.802 1.549,-1.215c0.091,-0.074 0.216,-0.091 0.324,-0.043c16.365,7.472 34.083,7.472 50.255,-0c0.108,-0.051 0.235,-0.036 0.328,0.039c0.5,0.413 1.024,0.826 1.553,1.219c0.08,0.06 0.128,0.155 0.128,0.256c0,0.113 -0.059,0.217 -0.156,0.275c-2.492,1.456 -5.102,2.698 -7.804,3.714c-0.123,0.047 -0.205,0.166 -0.205,0.298c-0,0.051 0.012,0.102 0.036,0.147c1.501,2.908 3.216,5.678 5.104,8.305c0.079,0.111 0.221,0.159 0.351,0.119c8.17,-2.528 16.456,-6.341 25.009,-12.622c0.075,-0.055 0.122,-0.139 0.131,-0.23c2.085,-21.571 -3.493,-40.308 -14.786,-56.919c-0.028,-0.054 -0.074,-0.096 -0.13,-0.119l0,0Zm-51.237,45.673c-4.927,0 -8.987,-4.524 -8.987,-10.079c-0,-5.555 3.981,-10.079 8.987,-10.079c5.045,0 9.066,4.563 8.987,10.079c-0,5.555 -3.981,10.079 -8.987,10.079Zm33.228,0c-4.927,0 -8.987,-4.524 -8.987,-10.079c-0,-5.555 3.981,-10.079 8.987,-10.079c5.045,0 9.065,4.563 8.987,10.079c-0,5.555 -3.942,10.079 -8.987,10.079Z" style="fill:#fff;fill-rule:nonzero;"/></svg>