<?xml version="1.0" encoding="UTF-8" standalone="no"?><!DOCTYPE svg PUBLIC "-//W3C//DTD SVG 1.1//EN" "http://www.w3.org/Graphics/SVG/1.1/DTD/svg11.dtd"><svg width="100%" height="100%" viewBox="0 0 100 100" version="1.1" xmlns="http://www.w3.org/2000/svg" xmlns:xlink="http://www.w3.org/1999/xlink" xml:space="preserve" xmlns:serif="http://www.serif.com/" style="fill-rule:evenodd;clip-rule:evenodd;stroke-linejoin:round;stroke-miterlimit:2;"><path d="M50,1.238c-27.625,-0 -50,22.387 -50,50c0,22.095 14.325,40.833 34.188,47.437c2.499,0.471 3.416,-1.075 3.416,-2.404c0,-1.188 -0.041,-4.333 -0.062,-8.5c-13.909,3.017 -16.842,-6.708 -16.842,-6.708c-2.275,-5.771 -5.563,-7.313 -5.563,-7.313c-4.529,-3.1 0.35,-3.037 0.35,-3.037c5.021,0.35 7.659,5.15 7.659,5.15c4.458,7.645 11.704,5.437 14.562,4.158c0.45,-3.233 1.738,-5.438 3.167,-6.688c-11.104,-1.25 -22.775,-5.55 -22.775,-24.708c-0,-5.458 1.937,-9.917 5.146,-13.417c-0.563,-1.262 -2.25,-6.345 0.437,-13.233c0,0 4.188,-1.342 13.75,5.125c4,-1.112 8.25,-1.662 12.5,-1.687c4.25,0.025 8.5,0.575 12.5,1.687c9.5,-6.467 13.688,-5.125 13.688,-5.125c2.687,6.888 1,11.971 0.5,13.233c3.187,3.5 5.125,7.959 5.125,13.417c-0,19.208 -11.688,23.438 -22.813,24.667c1.75,1.5 3.375,4.566 3.375,9.25c0,6.691 -0.062,12.066 -0.062,13.691c-0,1.313 0.875,2.875 3.437,2.375c20.005,-6.558 34.317,-25.308 34.317,-47.371c0,-27.612 -22.388,-50 -50,-50" style="fill:#fff;fill-rule:nonzero;"/></svg>