<?xml version="1.0" encoding="UTF-8" standalone="no"?><!DOCTYPE svg PUBLIC "-//W3C//DTD SVG 1.1//EN" "http://www.w3.org/Graphics/SVG/1.1/DTD/svg11.dtd"><svg width="100%" height="100%" viewBox="0 0 417 417" version="1.1" xmlns="http://www.w3.org/2000/svg" xmlns:xlink="http://www.w3.org/1999/xlink" xml:space="preserve" xmlns:serif="http://www.serif.com/" style="fill-rule:evenodd;clip-rule:evenodd;stroke-linejoin:round;stroke-miterlimit:2;"><path d="M208.333,15.851c-108.857,0 -197.027,88.217 -197.027,197.028c-0,87.066 56.448,160.904 134.719,186.927c9.848,1.856 13.461,-4.236 13.461,-9.473c0,-4.681 -0.161,-17.074 -0.244,-33.494c-54.809,11.888 -66.367,-26.434 -66.367,-26.434c-8.964,-22.741 -21.921,-28.817 -21.921,-28.817c-17.847,-12.216 1.379,-11.967 1.379,-11.967c19.786,1.379 30.181,20.294 30.181,20.294c17.567,30.125 46.12,21.424 57.382,16.384c1.773,-12.739 6.849,-21.428 12.48,-26.354c-43.756,-4.926 -89.746,-21.87 -89.746,-97.363c-0,-21.508 7.633,-39.079 20.278,-52.87c-2.219,-4.973 -8.866,-25.003 1.722,-52.146c-0,0 16.503,-5.288 54.182,20.196c15.763,-4.382 32.51,-6.55 49.257,-6.648c16.748,0.098 33.495,2.266 49.257,6.648c37.435,-25.484 53.938,-20.196 53.938,-20.196c10.589,27.143 3.941,47.173 1.971,52.146c12.558,13.791 20.195,31.362 20.195,52.87c-0,75.69 -46.057,92.358 -89.896,97.201c6.896,5.911 13.3,17.993 13.3,36.45c-0,26.367 -0.245,47.547 -0.245,53.95c0,5.174 3.448,11.33 13.544,9.359c78.831,-25.842 135.228,-99.727 135.228,-186.667c-0,-108.807 -88.221,-197.028 -197.028,-197.028" style="fill:#fff;fill-rule:nonzero;stroke:#000;stroke-width:20.83px;"/></svg>