<?xml version="1.0" encoding="UTF-8" standalone="no"?><!DOCTYPE svg PUBLIC "-//W3C//DTD SVG 1.1//EN" "http://www.w3.org/Graphics/SVG/1.1/DTD/svg11.dtd"><svg width="100%" height="100%" viewBox="0 0 417 417" version="1.1" xmlns="http://www.w3.org/2000/svg" xmlns:xlink="http://www.w3.org/1999/xlink" xml:space="preserve" xmlns:serif="http://www.serif.com/" style="fill-rule:evenodd;clip-rule:evenodd;stroke-linejoin:round;stroke-miterlimit:2;"><path d="M217.179,190.267l-0,54.396l130.017,0c-3.98,30.511 -14.149,52.851 -29.636,68.541c-19.021,19.021 -48.64,39.797 -100.381,39.797c-80.047,-0 -142.618,-64.557 -142.618,-144.608c-0,-80.048 62.571,-144.608 142.618,-144.608c43.116,-0 74.742,17.03 97.961,38.921l38.257,-38.261c-32.287,-31.39 -75.638,-55.271 -136.218,-55.271c-109.667,0 -201.873,89.337 -201.873,199.004c-0,109.667 92.206,199.003 201.873,199.003c59.255,0 103.931,-19.454 138.857,-55.721c35.82,-35.82 47.096,-86.451 47.096,-127.147c-0,-12.601 -0.88,-24.326 -2.87,-34.046l-183.083,0Z" style="fill:#fff;fill-rule:nonzero;stroke:#000;stroke-width:16.67px;"/></svg>