<?xml version="1.0" encoding="UTF-8" standalone="no"?><!DOCTYPE svg PUBLIC "-//W3C//DTD SVG 1.1//EN" "http://www.w3.org/Graphics/SVG/1.1/DTD/svg11.dtd"><svg width="100%" height="100%" viewBox="0 0 100 100" version="1.1" xmlns="http://www.w3.org/2000/svg" xmlns:xlink="http://www.w3.org/1999/xlink" xml:space="preserve" xmlns:serif="http://www.serif.com/" style="fill-rule:evenodd;clip-rule:evenodd;stroke-linejoin:round;stroke-miterlimit:2;"><path d="M52,45.5l0,13.667l32.667,-0c-1,7.666 -3.555,13.279 -7.446,17.221c-4.779,4.779 -12.221,9.999 -25.221,9.999c-20.112,0 -35.833,-16.22 -35.833,-36.333c-0,-20.112 15.721,-36.333 35.833,-36.333c10.833,-0 18.779,4.279 24.613,9.779l9.612,-9.613c-8.112,-7.887 -19.004,-13.887 -34.225,-13.887c-27.554,-0 -50.721,22.446 -50.721,50c0,27.554 23.167,50 50.721,50c14.888,0 26.113,-4.888 34.888,-14c9,-9 11.833,-21.721 11.833,-31.946c-0,-3.166 -0.221,-6.112 -0.721,-8.554l-46,0Z" style="fill:#fff;fill-rule:nonzero;"/></svg>